<svg xmlns="http://www.w3.org/2000/svg"><defs><symbol id="search" viewBox="0 0 32 32"><path d="m29 29-6.283-6.283"/><path fill="none" d="M14.556 26.111c6.382 0 11.555-5.173 11.555-11.555S20.938 3.001 14.556 3.001 3.001 8.174 3.001 14.556s5.173 11.555 11.555 11.555z"/></symbol><symbol id="arrow" fill="none" viewBox="0 0 32 32"><path d="M25.333 16H6.666M16 25.333 6.667 16 16 6.667"/></symbol><symbol id="film" fill="none" viewBox="0 0 24 24"><path d="M19.82 2H4.18A2.18 2.18 0 0 0 2 4.18v15.64A2.18 2.18 0 0 0 4.18 22h15.64A2.18 2.18 0 0 0 22 19.82V4.18A2.18 2.18 0 0 0 19.82 2ZM7 2v20M17 2v20M2 12h20M2 7h5M2 17h5m10 0h5M17 7h5"/></symbol><symbol id="heart" viewBox="0 0 32 32"><path d="m16 30.144-2.24-2.218C5.44 20.639 0 15.728 0 9.708 0 4.797 3.84.995 8.8.995c2.72 0 5.44 1.267 7.2 3.327C17.76 2.263 20.48.995 23.2.995c4.96 0 8.8 3.802 8.8 8.713 0 6.02-5.44 10.931-13.76 18.218L16 30.144z"/></symbol><symbol id="close" viewBox="0 0 32 32"><path d="m8 8 14 14M8 22 22 8"/></symbol><symbol id="spinner" viewBox="0 0 32 32"><path d="M16 0C7.289 0 .204 6.961.005 15.624.19 8.066 5.937 2 13 2c7.18 0 13 6.268 13 14a3 3 0 1 0 6 0c0-8.837-7.163-16-16-16zm0 32c8.711 0 15.796-6.961 15.995-15.624C31.81 23.934 26.063 30 19 30c-7.18 0-13-6.268-13-14a3 3 0 1 0-6 0c0 8.837 7.163 16 16 16z"/></symbol><symbol aria-hidden="true" style="width:0;height:0;position:absolute" xmlns="http://www.w3.org/2000/svg" overflow="hidden" id="sun" viewBox="0 0 32 32"><path fill="currentColor" d="M16 10c-3.306 0-6 2.694-6 6s2.694 6 6 6 6-2.694 6-6-2.694-6-6-6zm15.4 5.031-5.919-2.956L27.575 5.8c.281-.85-.525-1.656-1.369-1.369l-6.275 2.094L16.969.6c-.4-.8-1.537-.8-1.938 0l-2.956 5.919-6.281-2.094c-.85-.281-1.656.525-1.369 1.369l2.094 6.275L.6 15.032c-.8.4-.8 1.538 0 1.938l5.919 2.956-2.094 6.281c-.281.85.525 1.656 1.369 1.369l6.275-2.094 2.956 5.919c.4.8 1.538.8 1.938 0l2.956-5.919 6.275 2.094c.85.281 1.656-.525 1.369-1.369l-2.094-6.275 5.919-2.956c.813-.406.813-1.544.012-1.944zm-9.744 6.625c-3.119 3.119-8.194 3.119-11.313 0s-3.119-8.194 0-11.313c3.119-3.119 8.194-3.119 11.313 0s3.119 8.194 0 11.313z"/></symbol><symbol aria-hidden="true" style="width:0;height:0;position:absolute" xmlns="http://www.w3.org/2000/svg" overflow="hidden" id="moon" viewBox="0 0 32 32"><path fill="currentColor" d="M17.701 32a15.97 15.97 0 0 0 12.429-5.925c.442-.544-.04-1.339-.723-1.209-7.763 1.478-14.891-4.474-14.891-12.31 0-4.514 2.416-8.665 6.344-10.9.605-.345.453-1.262-.235-1.389-.879-.17-1.89-.267-2.923-.268-8.832 0-16 7.157-16 16 0 8.832 7.157 16 16 16z"/></symbol><symbol id="icon-git-icon" viewBox="0 0 32 32"><path d="M15.075.444a15.571 15.571 0 0 0-7.844 2.575C3.625 5.406 1.119 9.119.319 13.275c-.569 2.95-.325 6.013.7 8.738 1.188 3.137 3.462 5.969 6.275 7.8 1.325.863 3.337 1.75 3.969 1.75.275 0 .338-.025.525-.212l.213-.212v-3.275l-.419.056c-.65.075-2.056.044-2.6-.069-.694-.137-1.25-.425-1.706-.881-.306-.313-.425-.5-.65-1.006-.494-1.131-1-1.85-1.594-2.238-.606-.406-.906-.813-.725-.994.119-.119.775-.131 1.156-.019.763.225 1.438.769 2.025 1.644.719 1.069 1.469 1.575 2.381 1.631a5.153 5.153 0 0 0 1.775-.244l.394-.131.106-.444c.125-.55.425-1.169.706-1.481l.213-.231-.394-.044c-2.131-.238-4.025-1.087-5.144-2.306-1.1-1.206-1.712-3.137-1.719-5.406 0-1.275.175-2.106.631-3.019.188-.369.6-.981.819-1.213l.181-.194-.119-.338c-.35-1.006-.306-2.231.125-3.544.119-.362.138-.388.362-.425.631-.106 2.519.606 3.838 1.45l.363.231.575-.137c1.281-.306 1.744-.35 3.419-.35s2.137.044 3.419.35l.575.137.331-.213c1.462-.925 3.144-1.575 3.813-1.475l.281.044.163.544c.413 1.35.444 2.412.106 3.375l-.119.331.313.387c.925 1.137 1.313 2.344 1.313 4.056-.006 3.062-1.025 5.263-2.988 6.444-1.05.631-2.119.994-3.544 1.206l-.719.106.219.256c.262.306.55.875.694 1.381.087.319.106.769.125 3.125.012 1.806.044 2.813.094 2.925.256.656 1.038.538 3.081-.462 4.356-2.131 7.656-6.463 8.525-11.181.406-2.175.406-4.137.006-6.206-.806-4.175-3.306-7.888-6.919-10.275-2.313-1.525-5.056-2.438-7.65-2.55-.425-.019-.856-.044-.962-.05-.1-.013-.594 0-1.081.025z"/></symbol><symbol id="icon-link-icon" viewBox="0 0 32 32"><path d="M14.222.156c-2.318.228-5.22 1.308-7.268 2.702-1.152.782-2.816 2.361-3.698 3.527C2.332 7.622 1.08 10.14.639 11.704c-1.237 4.409-.398 9.486 2.219 13.34.782 1.152 2.361 2.816 3.527 3.698 1.237.924 3.755 2.176 5.319 2.617 2.631.74 5.959.74 8.59 0 1.564-.441 4.082-1.692 5.319-2.617 6.016-4.565 8.007-12.8 4.75-19.598-.811-1.692-1.564-2.816-2.816-4.124-1.294-1.365-2.546-2.29-4.224-3.157C20.479.398 17.421-.171 14.221.156zm-3.826 6.031c.583.37 1.124 1.351 1.124 2.005 0 .512-.427 1.465-.796 1.792-1.593 1.408-4.039.313-4.039-1.792 0-.768.228-1.266.825-1.835.782-.74 1.92-.811 2.887-.171zm13.014 6.001c.967.327 2.048 1.436 2.489 2.532.327.825.327.996.384 5.717l.057 4.878h-4.139l-.043-4.025c-.043-3.612-.071-4.068-.313-4.565-.356-.725-.967-1.081-1.835-1.081-.91 0-1.579.327-1.977.981-.313.498-.327.64-.37 4.594l-.043 4.096h-3.968V12.231h3.982v1.593l.37-.441c1.166-1.394 3.399-1.877 5.404-1.195zm-12.317 6.585v6.542H6.969V12.231h4.124v6.542z"/></symbol></defs></svg>