<svg width="800" height="800" viewBox="0 0 32 32" id="_x3C_Layer_x3E_" version="1.1" xml:space="preserve" xmlns="http://www.w3.org/2000/svg"><g id="page_x2C__document_x2C__emoji_x2C__No_results_x2C__empty_page"><g id="XMLID_1521_" fill="#263238"><path d="M21.5 14.75c.41 0 .75.34.75.75s-.34.75-.75.75-.75-.34-.75-.75.34-.75.75-.75z" id="XMLID_1887_"/><path d="M10.5 14.75c.41 0 .75.34.75.75s-.34.75-.75.75-.75-.34-.75-.75.34-.75.75-.75z" id="XMLID_1885_"/></g><g id="XMLID_1337_" fill="none" stroke-linecap="round" stroke-linejoin="round" stroke-miterlimit="10"><g id="XMLID_4010_" stroke="#455A64"><path id="XMLID_4073_" d="M21.5 1.5h-17v29h23v-23"/><path id="XMLID_4072_" d="m21.5 1.5 5.979 6H21.5V4"/><path d="M14.5 18.5c0-.83.67-1.5 1.5-1.5s1.5.67 1.5 1.5" id="XMLID_4071_"/><g id="XMLID_4068_"><path d="M20.75 15.5c0 .41.34.75.75.75s.75-.34.75-.75-.34-.75-.75-.75-.75.34-.75.75z" id="XMLID_4070_"/><path d="M11.25 15.5c0 .41-.34.75-.75.75s-.75-.34-.75-.75.34-.75.75-.75.75.34.75.75z" id="XMLID_4069_"/></g></g><g id="XMLID_2974_" stroke="#263238"><path id="XMLID_4009_" d="M21.5 1.5h-17v29h23v-23"/><path id="XMLID_4008_" d="m21.5 1.5 5.979 6H21.5V4"/><path d="M14.5 18.5c0-.83.67-1.5 1.5-1.5s1.5.67 1.5 1.5" id="XMLID_4007_"/><g id="XMLID_4004_"><path d="M20.75 15.5c0 .41.34.75.75.75s.75-.34.75-.75-.34-.75-.75-.75-.75.34-.75.75z" id="XMLID_4006_"/><path d="M11.25 15.5c0 .41-.34.75-.75.75s-.75-.34-.75-.75.34-.75.75-.75.75.34.75.75z" id="XMLID_4005_"/></g></g></g></g></svg>