<svg xmlns="http://www.w3.org/2000/svg">
  <defs>
    <symbol id="search" viewBox="0 0 32 32">
      <path d="m29 29-6.283-6.283"/>
      <path fill="none" d="M14.556 26.111c6.382 0 11.555-5.173 11.555-11.555S20.938 3.001 14.556 3.001 3.001 8.174 3.001 14.556s5.173 11.555 11.555 11.555z"/>
    </symbol>
    <symbol id="arrow" fill="none" viewBox="0 0 32 32">
      <path d="M25.333 16H6.666M16 25.333 6.667 16 16 6.667"/>
    </symbol>
    <symbol id="film" fill="none" viewBox="0 0 24 24">
      <path d="M19.82 2H4.18C2.97602 2 2 2.97602 2 4.18v15.64C2 21.024 2.97602 22 4.18 22h15.64c1.204 0 2.18-.976 2.18-2.18V4.18C22 2.97602 21.024 2 19.82 2ZM7 2v20M17 2v20M2 12h20M2 7h5M2 17h5m10 0h5M17 7h5"/>
    </symbol>
    <symbol id="heart" viewBox="0 0 32 32">
      <path d="m16 30.144-2.24-2.218C5.44 20.639 0 15.728 0 9.708 0 4.797 3.84.995 8.8.995c2.72 0 5.44 1.267 7.2 3.327C17.76 2.263 20.48.995 23.2.995c4.96 0 8.8 3.802 8.8 8.713 0 6.02-5.44 10.931-13.76 18.218L16 30.144z"/>
    </symbol>
    <symbol id="close" viewBox="0 0 32 32">
      <path d="m8 8 14 14M8 22 22 8"/>
    </symbol>
    <symbol id="spinner" viewBox="0 0 32 32">
      <path d="M16 0c-8.711 0-15.796 6.961-15.995 15.624 0.185-7.558 5.932-13.624 12.995-13.624 7.18 0 13 6.268 13 14 0 1.657 1.343 3 3 3s3-1.343 3-3c0-8.837-7.163-16-16-16zM16 32c8.711 0 15.796-6.961 15.995-15.624-0.185 7.558-5.932 13.624-12.995 13.624-7.18 0-13-6.268-13-14 0-1.657-1.343-3-3-3s-3 1.343-3 3c0 8.837 7.163 16 16 16z"></path>
    </symbol>
    <symbol aria-hidden="true" style="position:absolute; width:0; height:0" xmlns="http://www.w3.org/2000/svg" overflow="hidden" id="sun" viewBox="0 0 32 32">
      <path fill="currentColor" d="M16 10c-3.306 0-6 2.694-6 6s2.694 6 6 6 6-2.694 6-6-2.694-6-6-6zm15.4 5.031l-5.919-2.956L27.575 5.8c.281-.85-.525-1.656-1.369-1.369l-6.275 2.094L16.969.6c-.4-.8-1.537-.8-1.938 0l-2.956 5.919-6.281-2.094c-.85-.281-1.656.525-1.369 1.369l2.094 6.275L.6 15.032c-.8.4-.8 1.538 0 1.938l5.919 2.956-2.094 6.281c-.281.85.525 1.656 1.369 1.369l6.275-2.094 2.956 5.919c.4.8 1.538.8 1.938 0l2.956-5.919 6.275 2.094c.85.281 1.656-.525 1.369-1.369l-2.094-6.275 5.919-2.956c.813-.406.813-1.544.012-1.944zm-9.744 6.625c-3.119 3.119-8.194 3.119-11.313 0s-3.119-8.194 0-11.313c3.119-3.119 8.194-3.119 11.313 0s3.119 8.194 0 11.313z"/>
    </symbol>
    <symbol aria-hidden="true" style="position:absolute; width:0; height:0" xmlns="http://www.w3.org/2000/svg" overflow="hidden" id="moon" viewBox="0 0 32 32">
      <path fill="currentColor" d="M17.701 32a15.97 15.97 0 0012.429-5.925c.442-.544-.04-1.339-.723-1.209-7.763 1.478-14.891-4.474-14.891-12.31 0-4.514 2.416-8.665 6.344-10.9.605-.345.453-1.262-.235-1.389-.879-.17-1.89-.267-2.923-.268-8.832 0-16 7.157-16 16 0 8.832 7.157 16 16 16z"/>
    </symbol>
    <symbol id="icon-git-icon" viewBox="0 0 32 32">
<path d="M15.075 0.444c-2.825 0.144-5.481 1.019-7.844 2.575-3.606 2.387-6.112 6.1-6.912 10.256-0.569 2.95-0.325 6.013 0.7 8.738 1.188 3.137 3.462 5.969 6.275 7.8 1.325 0.863 3.337 1.75 3.969 1.75 0.275 0 0.338-0.025 0.525-0.212l0.213-0.212v-3.275l-0.419 0.056c-0.65 0.075-2.056 0.044-2.6-0.069-0.694-0.137-1.25-0.425-1.706-0.881-0.306-0.313-0.425-0.5-0.65-1.006-0.494-1.131-1-1.85-1.594-2.238-0.606-0.406-0.906-0.813-0.725-0.994 0.119-0.119 0.775-0.131 1.156-0.019 0.763 0.225 1.438 0.769 2.025 1.644 0.719 1.069 1.469 1.575 2.381 1.631 0.55 0.031 1.219-0.063 1.775-0.244l0.394-0.131 0.106-0.444c0.125-0.55 0.425-1.169 0.706-1.481l0.213-0.231-0.394-0.044c-2.131-0.238-4.025-1.087-5.144-2.306-1.1-1.206-1.712-3.137-1.719-5.406 0-1.275 0.175-2.106 0.631-3.019 0.188-0.369 0.6-0.981 0.819-1.213l0.181-0.194-0.119-0.338c-0.35-1.006-0.306-2.231 0.125-3.544 0.119-0.362 0.138-0.388 0.362-0.425 0.631-0.106 2.519 0.606 3.838 1.45l0.363 0.231 0.575-0.137c1.281-0.306 1.744-0.35 3.419-0.35s2.137 0.044 3.419 0.35l0.575 0.137 0.331-0.213c1.462-0.925 3.144-1.575 3.813-1.475l0.281 0.044 0.163 0.544c0.413 1.35 0.444 2.412 0.106 3.375l-0.119 0.331 0.313 0.387c0.925 1.137 1.313 2.344 1.313 4.056-0.006 3.062-1.025 5.263-2.988 6.444-1.050 0.631-2.119 0.994-3.544 1.206l-0.719 0.106 0.219 0.256c0.262 0.306 0.55 0.875 0.694 1.381 0.087 0.319 0.106 0.769 0.125 3.125 0.012 1.806 0.044 2.813 0.094 2.925 0.256 0.656 1.038 0.538 3.081-0.462 4.356-2.131 7.656-6.463 8.525-11.181 0.406-2.175 0.406-4.137 0.006-6.206-0.806-4.175-3.306-7.888-6.919-10.275-2.313-1.525-5.056-2.438-7.65-2.55-0.425-0.019-0.856-0.044-0.962-0.050-0.1-0.013-0.594 0-1.081 0.025z"></path>
</symbol>
<symbol id="icon-link-icon" viewBox="0 0 32 32">
<path d="M14.222 0.156c-2.318 0.228-5.22 1.308-7.268 2.702-1.152 0.782-2.816 2.361-3.698 3.527-0.924 1.237-2.176 3.755-2.617 5.319-1.237 4.409-0.398 9.486 2.219 13.34 0.782 1.152 2.361 2.816 3.527 3.698 1.237 0.924 3.755 2.176 5.319 2.617 2.631 0.74 5.959 0.74 8.59 0 1.564-0.441 4.082-1.692 5.319-2.617 6.016-4.565 8.007-12.8 4.75-19.598-0.811-1.692-1.564-2.816-2.816-4.124-1.294-1.365-2.546-2.29-4.224-3.157-2.844-1.465-5.902-2.034-9.102-1.707zM10.396 6.187c0.583 0.37 1.124 1.351 1.124 2.005 0 0.512-0.427 1.465-0.796 1.792-1.593 1.408-4.039 0.313-4.039-1.792 0-0.768 0.228-1.266 0.825-1.835 0.782-0.74 1.92-0.811 2.887-0.171zM23.41 12.188c0.967 0.327 2.048 1.436 2.489 2.532 0.327 0.825 0.327 0.996 0.384 5.717l0.057 4.878h-4.139l-0.043-4.025c-0.043-3.612-0.071-4.068-0.313-4.565-0.356-0.725-0.967-1.081-1.835-1.081-0.91 0-1.579 0.327-1.977 0.981-0.313 0.498-0.327 0.64-0.37 4.594l-0.043 4.096h-3.968v-13.084h3.982v1.593l0.37-0.441c1.166-1.394 3.399-1.877 5.404-1.195zM11.093 18.773v6.542h-4.124v-13.084h4.124v6.542z"></path>
</symbol>
  </defs>
</svg>
