<svg xmlns="http://www.w3.org/2000/svg">
  <defs>
    <symbol id="search" viewBox="0 0 32 32">
      <path d="m29 29-6.283-6.283"/>
      <path fill="none" d="M14.556 26.111c6.382 0 11.555-5.173 11.555-11.555S20.938 3.001 14.556 3.001 3.001 8.174 3.001 14.556s5.173 11.555 11.555 11.555z"/>
    </symbol>
    <symbol id="arrow" fill="none" viewBox="0 0 32 32">
      <path d="M25.333 16H6.666M16 25.333 6.667 16 16 6.667"/>
    </symbol>
    <symbol id="film" fill="none" viewBox="0 0 24 24">
      <path d="M19.82 2H4.18C2.97602 2 2 2.97602 2 4.18v15.64C2 21.024 2.97602 22 4.18 22h15.64c1.204 0 2.18-.976 2.18-2.18V4.18C22 2.97602 21.024 2 19.82 2ZM7 2v20M17 2v20M2 12h20M2 7h5M2 17h5m10 0h5M17 7h5"/>
    </symbol>
    <symbol id="heart" viewBox="0 0 32 32">
      <path d="m16 30.144-2.24-2.218C5.44 20.639 0 15.728 0 9.708 0 4.797 3.84.995 8.8.995c2.72 0 5.44 1.267 7.2 3.327C17.76 2.263 20.48.995 23.2.995c4.96 0 8.8 3.802 8.8 8.713 0 6.02-5.44 10.931-13.76 18.218L16 30.144z"/>
    </symbol>
    <symbol id="close" viewBox="0 0 32 32">
      <path d="m8 8 14 14M8 22 22 8"/>
    </symbol>
    <symbol id="spinner" viewBox="0 0 32 32">
      <path d="M16 0c-8.711 0-15.796 6.961-15.995 15.624 0.185-7.558 5.932-13.624 12.995-13.624 7.18 0 13 6.268 13 14 0 1.657 1.343 3 3 3s3-1.343 3-3c0-8.837-7.163-16-16-16zM16 32c8.711 0 15.796-6.961 15.995-15.624-0.185 7.558-5.932 13.624-12.995 13.624-7.18 0-13-6.268-13-14 0-1.657-1.343-3-3-3s-3 1.343-3 3c0 8.837 7.163 16 16 16z"></path>
    </symbol>
  </defs>
</svg>
